#!OML:ASF F:\VICON\USERDATA\INSTALL\rory3\rory3.ASF
:FULLY-SPECIFIED
:DEGREES
19
root -0.4844749004420651 18.372290086159513 -16.943690324303056 4.279486565747906 6.790087861471056 -3.073475058463819
lfemur -39.82128774060822 -6.529775173278697 -17.462406034165927
ltibia 54.9098004856916
lfoot -0.17070495168505273 -5.470965807356952
ltoes -17.27779189582617
rfemur 11.074285881809683 2.892708353475655 33.782292673841965
rtibia 31.01540998274072
rfoot 17.597591605779183 -7.069479828323632
rtoes -9.064132775493093
lowerback 11.898812831313274 1.553290103323134 4.970349701951271
upperback -1.3770336642026555 2.9474394472202383 1.8142371012509613
thorax -8.010720460340162 1.2533894389150753 -1.4153503695989391
lowerneck -16.57081393151562 -6.113345298483026 -1.9988249771390072
upperneck 15.7643840304492 -8.097116489703842 1.2708680302949384
head 7.716879436979419 -3.8506043551154296 -0.18480879191427801
lclavicle -6.47765681116531e-16 -4.8606873629162415e-15
lhumerus -67.23548730827449 -7.878910424891632 98.21299570472212
lradius 103.3840089709444
lwrist 29.555099954141646
lhand -32.939495432915564 -0.24947649978848588
lfingers 7.125019999999998
lthumb -6.155845431816723 29.64110154924693
rclavicle -6.47765681116531e-16 -4.8606873629162415e-15
rhumerus -44.04030711390181 14.35529328634943 -97.42380421841109
rradius 124.49698567439836
rwrist -15.546496265655355
rhand -16.673109046820628 46.90078045476249
rfingers 7.125019999999998
rthumb 9.550710951928714 17.137280295474792
20
root -0.45141699459821955 18.53618751580777 -15.831490768935009 4.0677077181162264 7.330526728614289 -2.7343363569111903
lfemur -37.36628905424469 -7.582652514715331 -18.031405183532776
ltibia 43.794104556349495
lfoot -0.724051664670855 -6.990443907162841
ltoes -22.341887170534672
rfemur 13.473484712344792 3.643976929132006 33.59009296320044
rtibia 30.83651004135481
rfoot 24.185087597318553 -6.572690719969029
rtoes 0.9370339715436584
lowerback 11.83601308922058 1.6169095180343773 5.27791880697575
upperback -1.7511096106958401 3.0586488514516637 1.4095902465363193
thorax -8.335727660980098 1.2680092460396517 -2.041477323727764
lowerneck -16.38891478219032 -6.154595005573551 -1.907786714044261
upperneck 16.66838036037637 -8.219775896577758 1.329027719556998
head 7.986755759672683 -3.8876439565980387 -0.20647744818312996
lclavicle -6.477657615146674e-16 -4.860687333305774e-15
lhumerus -69.3028857772427 -6.548523210830309 96.89720046677294
lradius 104.16200804272509
lwrist 30.977298528632723
lhand -34.64128950036381 0.9493244387603598
lfingers 7.125019999999998
lthumb -7.798599500966565 30.785497674029326
rclavicle -6.477657615146674e-16 -4.860687333305774e-15
rhumerus -45.75680504691042 14.971791920599792 -98.2860021192759
rradius 125.73398435493867
rwrist -17.347892159338496
rhand -14.087021320069445 60.120654541022674
rfingers 7.125019999999998
rthumb 12.045178685025583 30.48725408614461
21
root -0.5855309137992888 18.622097735326776 -0.23349305092449502 4.166844165099894 7.100014598917281 -1.8123954282500578
lfemur -29.69747137624536 -3.5601975063407365 -21.267075692303596
ltibia 35.6579845646025
lfoot 6.7066314266676335 -12.920292634581111
ltoes -19.016532516608784
rfemur 9.949806032981098 3.760183914723573 30.38935476424261
rtibia 32.081226759408445
rfoot 28.257012951167223 -5.8750738620723935
rtoes 10.168528790288478
lowerback 12.944856705414177 1.3383484300289517 3.3548565711338707
upperback -1.5161570424107358 2.6094587767253117 1.4036893120160623
thorax -8.375778751188758 1.1595979081580226 -1.8427953793334146
lowerneck -17.66860208099861 -6.106922138810525 -2.0626509729137092
upperneck 14.887671959371316 -8.090775913311878 1.7355725090678658
head 8.042076249817557 -3.7140454906859217 -0.18578963333404697
lclavicle -6.477657499218711e-16 -4.860687357167162e-15
lhumerus -68.1317572655032 -6.350801935977033 96.139284679266
lradius 106.48176676521842
lwrist 36.33466636044093
lhand -31.714942432260695 0.5735419420421545
lfingers 7.125019999999998
lthumb -5.080215640725446 30.330305726822854
rclavicle -6.477657499820977e-16 -4.860687357209007e-15
rhumerus -44.26276094053053 16.624109126758086 -97.47137353873441
rradius 125.77880818977401
rwrist -12.565553221904263
rhand -18.451905823094393 37.23012619853781
rfingers 7.125019999999998
rthumb 7.445115969629046 7.7476764380236665
22
root -0.6660743221964914 18.648464695088506 -0.9893500748967945 4.409368652719796 6.718776548857179 -1.460537883973424
lfemur -29.195707091646604 -3.0386400056094893 -23.1454521465862
ltibia 29.454705349464025
lfoot 13.383405190141357 -16.67951772546334
ltoes -17.073098521474385
rfemur 7.026243315572874 4.188156307365196 29.837327844571913
rtibia 35.764278308163625
rfoot 27.551294675038 -5.995057562505937
rtoes 10.830763811069353
lowerback 12.874471968291617 1.1955335292403109 2.642307545599862
upperback -1.223851090455227 2.402185621232328 1.3903272477073736
thorax -8.1372161952776 1.0741895799144425 -1.6494485229331906
lowerneck -18.015004584523812 -5.800128580144499 -1.9563181018315237
upperneck 13.695245557928878 -7.842285704010525 2.0499536849209123
head 7.60278709360319 -3.6482693247938425 -0.05221088120750106
lclavicle -6.477657499147693e-16 -4.8606873571625196e-15
lhumerus -66.47116912436363 -6.2547320442076035 95.6202070098729
lradius 107.95820302278271
lwrist 38.4994885405047
lhand -31.19866402402267 0.12915168082052336
lfingers 7.125019999999998
lthumb -4.651425893215951 29.966446042656912
rclavicle -6.477657499860823e-16 -4.860687357212319e-15
rhumerus -43.76899258021304 17.378921348003498 -97.40559639823765
rradius 125.34366898170984
rwrist -10.316563923564802
rhand -18.642607386566944 35.61341839026048
rfingers 7.125019999999998
rthumb 7.603068732870849 6.045052541644408
23
root -0.7291889667411532 18.614534080825933 -1.1725317172842367 4.398480651741774 6.004186724568004 -1.0419603560224806
lfemur -27.190848448724893 -2.6485191795103047 -23.8932660400419
ltibia 25.088385473238365
lfoot 16.96958241539925 -17.2563881814667
ltoes -14.713378448300691
rfemur 3.436652068641582 4.257739600897099 29.05703782588875
rtibia 41.996206761647585
rfoot 25.0960244735949 -6.907129156327337
rtoes 11.318197508153268
lowerback 13.058687234273219 1.099431896582305 1.7408078557026858
upperback -0.9724111257712362 2.107556770721805 1.2270411506264975
thorax -8.152047962729352 0.9725857282414581 -1.3103051538149413
lowerneck -18.37980711985617 -5.731822243816733 -1.9903515516394514
upperneck 12.86014511507262 -7.826155813095372 2.3808941147432594
head 7.3140157482532455 -3.6264443000477335 0.10811990299828556
lclavicle -6.477657498996256e-16 -4.860687357151546e-15
lhumerus -65.28503431466534 -6.406055177495926 95.37853244626038
lradius 108.75184511435484
lwrist 38.94335269304812
lhand -31.27052869433475 -0.4300743171558743
lfingers 7.125019999999998
lthumb -4.645844953554632 29.56164245990839
rclavicle -6.477657499851439e-16 -4.860687357211416e-15
rhumerus -43.85394611037622 17.826848803183175 -97.76875218209409
rradius 124.42493357041027
rwrist -9.827024231168927
rhand -18.714129232413256 34.023021681187586
rfingers 7.125019999999998
rthumb 7.461970817097955 5.203900732252144
24
root -0.786375401497939 18.540204721657314 -1.6148501671920474 4.288149209148939 5.107417679964524 -0.614216171138896
lfemur -25.131493956344336 -2.314680617400332 -24.941177114279263
ltibia 23.75539614519593
lfoot 17.52515908974439 -17.059985434337214
ltoes -13.442759125684038
rfemur -0.669672885488179 3.8527929555687175 27.951351207854625
rtibia 49.80766513202898
rfoot 22.715264199980606 -8.494243162697517
rtoes 10.021832829450718
lowerback 13.424736700564045 0.9972881569245703 0.7677918630461679
upperback -0.7276140988650918 1.8079005820827532 0.9353441931911901
thorax -8.16889891646578 0.8456206896130245 -0.9662983478137613
lowerneck -18.59071049679419 -5.586906587053104 -2.035077752264709
upperneck 11.922637871997406 -7.671623496963976 2.7528420128546456
head 6.953358340368684 -3.5542679899521152 0.28373312287494257
lclavicle -6.477657498794173e-16 -4.860687357136683e-15
lhumerus -63.62239268578719 -6.748985196167842 95.44729893878488
lradius 109.12530385041448
lwrist 38.35277344210534
lhand -31.31718122998626 -0.7268009687503845
lfingers 7.125019999999998
lthumb -4.648497441277767 29.29420612161522
rclavicle -6.477657499890053e-16 -4.86068735721345e-15
rhumerus -44.319932312091495 18.024455063614052 -98.4650876436211
rradius 122.93847355459575
rwrist -10.952498731344761
rhand -18.849950533374706 33.70339319111063
rfingers 7.125019999999998
rthumb 7.687904379083579 4.582008051052024
25
root -0.8574577088006288 18.40532233032426 -1.9399942024892098 3.9241973736681883 4.298267572715867 -0.009252013664880598
lfemur -21.10929937892532 -1.8602218051536255 -26.09134395637167
ltibia 24.271158014764236
lfoot 15.765343938043982 -17.371773889110546
ltoes -10.46848902229085
rfemur -5.075974587390363 3.1342285540734975 26.44886618845412
rtibia 58.705923512820085
rfoot 21.115808858968457 -10.501428277578325
rtoes 11.349902091814423
lowerback 14.155038785281947 0.9428664175193282 -0.2629195585988888
upperback -0.5772575614212299 1.4725111256555485 0.43300950661761584
thorax -8.4170482456729 0.7322321070195981 -0.5321387535311609
lowerneck -18.912095589072845 -5.676155997231368 -2.1441028226530188
upperneck 11.389383053186743 -7.788277611488219 3.3326398426767554
head 6.817602150914148 -3.548400417218091 0.5160061161687102
lclavicle -6.477657499049855e-16 -4.860687357154298e-15
lhumerus -62.11568990627498 -7.381428329645832 95.71832334166768
lradius 109.40964237971619
lwrist 37.549821151544194
lhand -31.736082095196707 -0.7923164242903719
lfingers 7.125019999999998
lthumb -5.047531584146373 29.189188645438172
rclavicle -6.477657499589191e-16 -4.8606873571916585e-15
rhumerus -45.26719379872825 17.481965664559127 -99.1618504653757
rradius 121.17767948896383
rwrist -12.05330694134254
rhand -18.802022330357886 33.6068350400073
rfingers 7.125019999999998
rthumb 7.8997527661369755 4.267788549614297
